<?xml version="1.0" encoding="utf-8"?>

<!-- Uploaded to: SVG Repo, www.svgrepo.com, Generator: SVG Repo Mixer Tools -->
<svg width="160px" height="160px" viewBox="0 -10.6 92.46542 92.46542" xmlns="http://www.w3.org/2000/svg">

<title>Asset 8</title>

<g id="Layer_2" data-name="Layer 2">

<g id="Layer_1-2" data-name="Layer 1">

<g id="Laptop_with_Stickers_Icon" data-name="Laptop with Stickers Icon">

<path id="Laptop" d="M0,5.28848A5.28849,5.28849,0,0,1,5.28848,0H87.177a5.28847,5.28847,0,0,1,5.2884,5.28848V65.9827a5.28845,5.28845,0,0,1-5.2884,5.2884H5.28848A5.28847,5.28847,0,0,1,0,65.9827Z" style="fill:#c4c4c4"/>

<path id="Laptop_Logo" data-name="Laptop Logo" d="M52.42156,36.30687c.0857-.571-.4825-.96826-1.05881-1.00238q-.15608-.00926-.314-.03312a3.25142,3.25142,0,0,1-2.78506-3.64981,1.11628,1.11628,0,0,0-.72-1.34244q-.18468-.03642-.37348-.06512c-3.32936-.50588-6.31581.99974-6.80527,4.26092a6.09883,6.09883,0,0,0,12.0566,1.832Z" style="fill:#fff"/>

<g id="Bitcoin">

<path id="Ellipse" d="M81.09051,30.09023A10.70408,10.70408,0,1,1,82.606,15.0683,10.685,10.685,0,0,1,81.09051,30.09023Z" style="fill:#fcbb6a"/>

<path id="B" d="M79.249,19.44325a2.77207,2.77207,0,0,0-.78611-1.14947l.35422-.60671a.70981.70981,0,0,0-.24465-.96173l-.04-.02423a.68256.68256,0,0,0-.94633.24028l-.31051.53192-.76168-.42474.27505-.494a.70955.70955,0,0,0-.26412-.95636l-.04013-.02324a.68282.68282,0,0,0-.94136.25965l-.28578.51324-1.61046-.89815L68.09981,25.46551l1.82681,1.01884-.24813.4456a.70955.70955,0,0,0,.26412.95636l.04013.02325a.68285.68285,0,0,0,.94136-.25966l.25886-.465.76157.42475-.24147.41361a.70986.70986,0,0,0,.24455.96173l.04013.02433a.68259.68259,0,0,0,.94633-.24038l.31439-.53847a5.09616,5.09616,0,0,0,.566.17859,3.29246,3.29246,0,0,0,1.38348.04143,2.77925,2.77925,0,0,0,1.19754-.53182,3.35324,3.35324,0,0,0,.94365-1.10815,3.76493,3.76493,0,0,0,.36464-.90927,2.23927,2.23927,0,0,0,.03914-.91713,2.17805,2.17805,0,0,0-.34249-.88643,3.38184,3.38184,0,0,0-.758-.85743,2.56387,2.56387,0,0,0,1.286-.37816,2.94674,2.94674,0,0,0,.97752-1.10655A2.84022,2.84022,0,0,0,79.249,19.44325ZM74.808,25.173a.99262.99262,0,0,1-.87322.57354,3.317,3.317,0,0,1-1.5461-.53182l-.57036-.31816,1.17708-2.12539.57046.31815a3.32749,3.32749,0,0,1,1.26647,1.03663A.99921.99921,0,0,1,74.808,25.173Zm1.49672-4.36393q-.53714.96983-1.75757.28906l-.47758-.26631,1.07407-1.93944.47758.2664Q76.84178,19.83939,76.30468,20.80905Z" style="fill:#fff"/>

</g>

<g id="Vue">

<path id="Big_V" data-name="Big V" d="M27.93045,61.1489a1.4529,1.4529,0,0,1-2.49576.25985L15.66143,48.0711a1.45276,1.45276,0,0,1,1.02133-2.3037L33.2692,44.04048a1.453,1.453,0,0,1,1.47442,2.04385Z" style="fill:#83ebc5"/>

<path id="Small_V" data-name="Small V" d="M19.5499,45.49394l4.926,6.72257a1.45288,1.45288,0,0,0,2.49573-.25986l3.434-7.593Z" style="fill:#6b94bf"/>

</g>

<g id="Git">

<path id="Ellipse-2" data-name="Ellipse" d="M75.32108,52.87726a9.30521,9.30521,0,1,1-9.30028-9.30554A9.30291,9.30291,0,0,1,75.32108,52.87726Z" style="fill:#7a7a7a"/>

<path id="Cat" d="M70.80133,49.86119a10.84834,10.84834,0,0,0-.18108-2.2735.2577.2577,0,0,0-.37041-.18594,9.19191,9.19191,0,0,0-1.743,1.09791,17.81377,17.81377,0,0,0-4.888-.00765,9.11062,9.11062,0,0,0-1.82959-1.17152.25772.25772,0,0,0-.3706.18555,10.868,10.868,0,0,0-.18307,2.356,3.17263,3.17263,0,0,0-.50371,1.85064l.06476,1.46106a3.11831,3.11831,0,0,0,2.86025,3.00219c.3572.02543.69313.04252,1.026.05732a1.84853,1.84853,0,0,0-.99331,1.006,3.71253,3.71253,0,0,1-1.28455-.49835.97378.97378,0,0,1-.18615-.15347,6.00583,6.00583,0,0,0-2.76012-1.81935.71475.71475,0,0,0-.26462-.021c-.258.03149-.39226.13132-.39564.39137-.00645.48881.553.75293,1.011.92368A5.87006,5.87006,0,0,1,61.85505,57.688a.99517.99517,0,0,0,.2379.19489,4.7481,4.7481,0,0,0,1.39113.5357A8.89088,8.89088,0,0,0,63.55322,60.56a1.92791,1.92791,0,0,0,1.94451,1.57162l1.04179.0006a1.98987,1.98987,0,0,0,2.01672-1.82661,18.15165,18.15165,0,0,0,.00268-2.43222,1.93138,1.93138,0,0,0-1.18522-1.63758c.3273-.0141.65678-.0304,1.00513-.05483a3.11414,3.11414,0,0,0,2.85767-2.997l.06675-1.4708A3.174,3.174,0,0,0,70.80133,49.86119Z" style="fill:#fff"/>

</g>

<path id="Heart" d="M44.12014,22.31193l-.778-1.2626c-2.99445-4.25377-4.93622-7.10211-4.27253-9.86251a4.0629,4.0629,0,0,1,4.97757-3.03044A4.52277,4.52277,0,0,1,46.967,10.47129a4.525,4.525,0,0,1,3.65337-.73605,4.06071,4.06071,0,0,1,3.05635,4.96017c-.66369,2.76039-3.68832,4.41582-8.28959,6.84512Z" style="fill:#ff7878"/>

<path id="JS" d="M12.19808,17.07422l2.9637,7.39386a6.58614,6.58614,0,0,1,.28911.885,2.77191,2.77191,0,0,1,.11648.74088,3.28559,3.28559,0,0,1-.17468,1.03793,3.43912,3.43912,0,0,1-.48025.9306,3.99922,3.99922,0,0,1-.78866.7752,3.93918,3.93918,0,0,1-1.01226.58581,3.502,3.502,0,0,1-3.41445-.45385L10.76456,26.393a1.60294,1.60294,0,0,0,.61707.63885.80766.80766,0,0,0,.70718.045q.77768-.31141.28466-1.54136L9.42677,18.184Zm9.19938-.5173a3.52114,3.52114,0,0,0-1.12026-.17486,2.50278,2.50278,0,0,0-.9503.16725,1.53192,1.53192,0,0,0-.77464.60552.85389.85389,0,0,0-.073.80034.7124.7124,0,0,0,.35668.39859,1.73348,1.73348,0,0,0,.56865.14964,5.14531,5.14531,0,0,0,.7128-.02292q.39316-.04259.77783-.06538a4.51949,4.51949,0,0,1,2.46684.42315,3.15994,3.15994,0,0,1,1.424,1.71032,4.04468,4.04468,0,0,1,.31222,1.59766,3.28741,3.28741,0,0,1-.34694,1.46786,3.89083,3.89083,0,0,1-1.01181,1.2419,5.62584,5.62584,0,0,1-1.63147.965,6.91973,6.91973,0,0,1-4.2286.29872l.29236-2.70931a5.19282,5.19282,0,0,0,1.55879.32739,3.18552,3.18552,0,0,0,1.30951-.21265,1.51568,1.51568,0,0,0,.87923-.713,1.01069,1.01069,0,0,0,.056-.84276.97919.97919,0,0,0-.24917-.376.89726.89726,0,0,0-.41313-.21192,2.22761,2.22761,0,0,0-.63649-.07326q-.362-.00268-.87685.023-.6053.04551-1.20779.05707a3.88888,3.88888,0,0,1-1.14006-.18333,2.88577,2.88577,0,0,1-.99041-.5878,3.39633,3.39633,0,0,1-.76738-1.21852,4.11006,4.11006,0,0,1-.31783-1.52979,3.48088,3.48088,0,0,1,.29324-1.39714,3.563,3.563,0,0,1,.87042-1.18528,4.78417,4.78417,0,0,1,1.43919-.87162,7.02081,7.02081,0,0,1,1.745-.43625,7.60876,7.60876,0,0,1,1.9093-.02626Z" style="fill:#fff8c9"/>

</g>

</g>

</g>

</svg>
